<?xml version="1.0" encoding="utf-8"?>
<!-- Generator: Adobe Illustrator 27.0.1, SVG Export Plug-In . SVG Version: 6.00 Build 0)  -->
<svg version="1.1" id="레이어_1" xmlns="http://www.w3.org/2000/svg" xmlns:xlink="http://www.w3.org/1999/xlink" x="0px"
	 y="0px" viewBox="0 0 32 36" style="enable-background:new 0 0 32 36;" xml:space="preserve">
<style type="text/css">
	.st0{fill:#FF6E6E;}
	.st1{fill:#0C0058;}
</style>
<g>
	<path class="st0" d="M30.4,25.2L16,36L1.6,25.2C0.6,24.4,0,23.3,0,22V4c0-2.2,1.8-4,4-4h24c2.2,0,4,1.8,4,4v18
		C32,23.3,31.4,24.4,30.4,25.2z"/>
	<path class="st1" d="M4,20V6c0-1.1,0.9-2,2-2h20c1.1,0,2,0.9,2,2v14c0,1.1-0.9,2-2,2H6C4.9,22,4,21.1,4,20z"/>
</g>
</svg>
